<svg xmlns="http://www.w3.org/2000/svg" viewBox="0 0 512 512" role="img" aria-labelledby="title desc">
  <title id="title">Seekant Electricals Logo</title>
  <desc id="desc">A simple circular logo for the Seekant Electricals desktop application.</desc>
  <defs>
    <linearGradient id="bg" x1="0%" y1="0%" x2="100%" y2="100%">
      <stop offset="0%" stop-color="#102542"/>
      <stop offset="100%" stop-color="#1f7a8c"/>
    </linearGradient>
  </defs>
  <rect width="512" height="512" rx="96" fill="url(#bg)"/>
  <circle cx="256" cy="256" r="168" fill="#f4efe3"/>
  <path d="M158 328l58-144h34l58 144h-35l-12-31h-58l-12 31zm55-59h38l-19-51z" fill="#102542"/>
  <path d="M320 184h34v144h-34z" fill="#102542"/>
  <path d="M360 184h28c35 0 58 21 58 53 0 33-23 55-58 55h-28zm28 78c16 0 25-9 25-25 0-15-9-24-25-24h-6v49z" fill="#102542"/>
</svg>
